# MagicaVoxel @ Ephtracy

# material
mtllib GroundRear.mtl
usemtl palette

# normals
vn -1 0 0
vn 1 0 0
vn 0 0 1
vn 0 0 -1
vn 0 -1 0
vn 0 1 0

# texcoords
vt 0.720703 0.5
vt 0.751953 0.5
vt 0.783203 0.5
vt 0.845703 0.5
vt 0.978516 0.5

# verts
v -63 0 21
v -63 0 -21
v -63 2 21
v -63 2 -21
v -59 2 -16
v -59 2 -19
v -59 3 -16
v -59 3 -19
v -58 3 -17
v -58 3 -18
v -58 8 -17
v -58 8 -18
v -47 2 -16
v -47 2 -19
v -47 3 -16
v -47 3 -19
v -46 3 -17
v -46 3 -18
v -46 8 -17
v -46 8 -18
v 37 2 -16
v 37 2 -19
v 37 3 -16
v 37 3 -19
v 38 3 -17
v 38 3 -18
v 38 8 -17
v 38 8 -18
v 49 2 -16
v 49 2 -19
v 49 3 -16
v 49 3 -19
v 50 3 -17
v 50 3 -18
v 50 8 -17
v 50 8 -18
v -50 3 -17
v -50 3 -18
v -50 8 -17
v -50 8 -18
v -49 2 -16
v -49 2 -19
v -49 3 -16
v -49 3 -19
v -38 3 -17
v -38 3 -18
v -38 8 -17
v -38 8 -18
v -37 2 -16
v -37 2 -19
v -37 3 -16
v -37 3 -19
v 46 3 -17
v 46 3 -18
v 46 8 -17
v 46 8 -18
v 47 2 -16
v 47 2 -19
v 47 3 -16
v 47 3 -19
v 58 3 -17
v 58 3 -18
v 58 8 -17
v 58 8 -18
v 59 2 -16
v 59 2 -19
v 59 3 -16
v 59 3 -19
v 63 0 21
v 63 0 -21
v 63 2 21
v 63 2 -21
v -63 0 21
v -63 2 21
v 63 0 21
v 63 2 21
v -59 2 -16
v -59 3 -16
v -49 2 -16
v -49 3 -16
v -47 2 -16
v -47 3 -16
v -37 2 -16
v -37 3 -16
v 37 2 -16
v 37 3 -16
v 47 2 -16
v 47 3 -16
v 49 2 -16
v 49 3 -16
v 59 2 -16
v 59 3 -16
v -58 3 -17
v -58 8 -17
v -57 4 -17
v -57 5 -17
v -57 6 -17
v -57 7 -17
v -51 4 -17
v -51 5 -17
v -51 6 -17
v -51 7 -17
v -50 3 -17
v -50 8 -17
v -46 3 -17
v -46 8 -17
v -45 4 -17
v -45 5 -17
v -45 6 -17
v -45 7 -17
v -39 4 -17
v -39 5 -17
v -39 6 -17
v -39 7 -17
v -38 3 -17
v -38 8 -17
v 38 3 -17
v 38 8 -17
v 39 4 -17
v 39 5 -17
v 39 6 -17
v 39 7 -17
v 45 4 -17
v 45 5 -17
v 45 6 -17
v 45 7 -17
v 46 3 -17
v 46 8 -17
v 50 3 -17
v 50 8 -17
v 51 4 -17
v 51 5 -17
v 51 6 -17
v 51 7 -17
v 57 4 -17
v 57 5 -17
v 57 6 -17
v 57 7 -17
v 58 3 -17
v 58 8 -17
v -58 3 -18
v -58 8 -18
v -57 4 -18
v -57 5 -18
v -57 6 -18
v -57 7 -18
v -51 4 -18
v -51 5 -18
v -51 6 -18
v -51 7 -18
v -50 3 -18
v -50 8 -18
v -46 3 -18
v -46 8 -18
v -45 4 -18
v -45 5 -18
v -45 6 -18
v -45 7 -18
v -39 4 -18
v -39 5 -18
v -39 6 -18
v -39 7 -18
v -38 3 -18
v -38 8 -18
v 38 3 -18
v 38 8 -18
v 39 4 -18
v 39 5 -18
v 39 6 -18
v 39 7 -18
v 45 4 -18
v 45 5 -18
v 45 6 -18
v 45 7 -18
v 46 3 -18
v 46 8 -18
v 50 3 -18
v 50 8 -18
v 51 4 -18
v 51 5 -18
v 51 6 -18
v 51 7 -18
v 57 4 -18
v 57 5 -18
v 57 6 -18
v 57 7 -18
v 58 3 -18
v 58 8 -18
v -59 2 -19
v -59 3 -19
v -49 2 -19
v -49 3 -19
v -47 2 -19
v -47 3 -19
v -37 2 -19
v -37 3 -19
v 37 2 -19
v 37 3 -19
v 47 2 -19
v 47 3 -19
v 49 2 -19
v 49 3 -19
v 59 2 -19
v 59 3 -19
v -63 0 -21
v -63 2 -21
v -36 1 -21
v -36 2 -21
v -35 1 -21
v -35 2 -21
v 35 1 -21
v 35 2 -21
v 36 1 -21
v 36 2 -21
v 63 0 -21
v 63 2 -21
v -63 0 21
v 63 0 21
v -63 0 -21
v 63 0 -21
v -63 2 21
v 63 2 21
v -36 2 8
v 36 2 8
v -35 2 7
v 35 2 7
v -32 2 5
v -29 2 5
v -27 2 5
v -24 2 5
v -22 2 5
v -19 2 5
v -17 2 5
v -14 2 5
v -12 2 5
v -9 2 5
v -7 2 5
v -4 2 5
v -2 2 5
v 2 2 5
v 4 2 5
v 7 2 5
v 9 2 5
v 12 2 5
v 14 2 5
v 17 2 5
v 19 2 5
v 22 2 5
v 24 2 5
v 27 2 5
v 29 2 5
v 32 2 5
v -31 2 4
v -29 2 4
v -27 2 4
v -24 2 4
v -22 2 4
v -19 2 4
v -17 2 4
v -14 2 4
v -12 2 4
v -9 2 4
v -7 2 4
v -4 2 4
v -2 2 4
v 2 2 4
v 4 2 4
v 7 2 4
v 9 2 4
v 12 2 4
v 14 2 4
v 17 2 4
v 19 2 4
v 22 2 4
v 24 2 4
v 27 2 4
v 29 2 4
v 31 2 4
v -32 2 2
v -31 2 2
v 31 2 2
v 32 2 2
v -32 2 -0
v -31 2 -0
v 31 2 -0
v 32 2 -0
v -32 2 -3
v -31 2 -3
v 31 2 -3
v 32 2 -3
v -32 2 -5
v -31 2 -5
v 31 2 -5
v 32 2 -5
v -32 2 -8
v -31 2 -8
v 31 2 -8
v 32 2 -8
v -32 2 -10
v -31 2 -10
v 31 2 -10
v 32 2 -10
v -32 2 -13
v -31 2 -13
v 31 2 -13
v 32 2 -13
v -32 2 -15
v -31 2 -15
v 31 2 -15
v 32 2 -15
v -59 2 -16
v -49 2 -16
v -47 2 -16
v -37 2 -16
v 37 2 -16
v 47 2 -16
v 49 2 -16
v 59 2 -16
v -32 2 -18
v -31 2 -18
v 31 2 -18
v 32 2 -18
v -59 2 -19
v -49 2 -19
v -47 2 -19
v -37 2 -19
v 37 2 -19
v 47 2 -19
v 49 2 -19
v 59 2 -19
v -63 2 -21
v -36 2 -21
v -35 2 -21
v 35 2 -21
v 36 2 -21
v 63 2 -21
v -59 3 -16
v -49 3 -16
v -47 3 -16
v -37 3 -16
v 37 3 -16
v 47 3 -16
v 49 3 -16
v 59 3 -16
v -58 3 -17
v -50 3 -17
v -46 3 -17
v -38 3 -17
v 38 3 -17
v 46 3 -17
v 50 3 -17
v 58 3 -17
v -58 3 -18
v -50 3 -18
v -46 3 -18
v -38 3 -18
v 38 3 -18
v 46 3 -18
v 50 3 -18
v 58 3 -18
v -59 3 -19
v -49 3 -19
v -47 3 -19
v -37 3 -19
v 37 3 -19
v 47 3 -19
v 49 3 -19
v 59 3 -19
v -58 8 -17
v -50 8 -17
v -46 8 -17
v -38 8 -17
v 38 8 -17
v 46 8 -17
v 50 8 -17
v 58 8 -17
v -58 8 -18
v -50 8 -18
v -46 8 -18
v -38 8 -18
v 38 8 -18
v 46 8 -18
v 50 8 -18
v 58 8 -18

# faces
f 3/3/1 2/3/1 1/3/1
f 4/3/1 2/3/1 3/3/1
f 7/5/1 6/5/1 5/5/1
f 8/5/1 6/5/1 7/5/1
f 11/5/1 10/5/1 9/5/1
f 12/5/1 10/5/1 11/5/1
f 15/5/1 14/5/1 13/5/1
f 16/5/1 14/5/1 15/5/1
f 19/5/1 18/5/1 17/5/1
f 20/5/1 18/5/1 19/5/1
f 23/5/1 22/5/1 21/5/1
f 24/5/1 22/5/1 23/5/1
f 27/5/1 26/5/1 25/5/1
f 28/5/1 26/5/1 27/5/1
f 31/5/1 30/5/1 29/5/1
f 32/5/1 30/5/1 31/5/1
f 35/5/1 34/5/1 33/5/1
f 36/5/1 34/5/1 35/5/1
f 37/5/2 38/5/2 39/5/2
f 39/5/2 38/5/2 40/5/2
f 41/5/2 42/5/2 43/5/2
f 43/5/2 42/5/2 44/5/2
f 45/5/2 46/5/2 47/5/2
f 47/5/2 46/5/2 48/5/2
f 49/5/2 50/5/2 51/5/2
f 51/5/2 50/5/2 52/5/2
f 53/5/2 54/5/2 55/5/2
f 55/5/2 54/5/2 56/5/2
f 57/5/2 58/5/2 59/5/2
f 59/5/2 58/5/2 60/5/2
f 61/5/2 62/5/2 63/5/2
f 63/5/2 62/5/2 64/5/2
f 65/5/2 66/5/2 67/5/2
f 67/5/2 66/5/2 68/5/2
f 69/3/2 70/3/2 71/3/2
f 71/3/2 70/3/2 72/3/2
f 75/3/3 74/3/3 73/3/3
f 76/3/3 74/3/3 75/3/3
f 79/5/3 78/5/3 77/5/3
f 80/5/3 78/5/3 79/5/3
f 83/5/3 82/5/3 81/5/3
f 84/5/3 82/5/3 83/5/3
f 87/5/3 86/5/3 85/5/3
f 88/5/3 86/5/3 87/5/3
f 91/5/3 90/5/3 89/5/3
f 92/5/3 90/5/3 91/5/3
f 95/5/3 94/5/3 93/5/3
f 96/5/3 94/5/3 95/5/3
f 97/5/3 94/5/3 96/5/3
f 98/5/3 94/5/3 97/5/3
f 99/5/3 95/5/3 93/5/3
f 99/4/3 96/4/3 95/4/3
f 100/5/3 97/5/3 96/5/3
f 100/4/3 96/4/3 99/4/3
f 101/4/3 98/4/3 97/4/3
f 101/5/3 97/5/3 100/5/3
f 102/5/3 94/5/3 98/5/3
f 102/4/3 98/4/3 101/4/3
f 103/5/3 101/5/3 100/5/3
f 103/5/3 100/5/3 99/5/3
f 103/5/3 102/5/3 101/5/3
f 103/5/3 99/5/3 93/5/3
f 104/5/3 94/5/3 102/5/3
f 104/5/3 102/5/3 103/5/3
f 107/5/3 106/5/3 105/5/3
f 108/5/3 106/5/3 107/5/3
f 109/5/3 106/5/3 108/5/3
f 110/5/3 106/5/3 109/5/3
f 111/5/3 107/5/3 105/5/3
f 111/4/3 108/4/3 107/4/3
f 112/5/3 109/5/3 108/5/3
f 112/4/3 108/4/3 111/4/3
f 113/4/3 110/4/3 109/4/3
f 113/5/3 109/5/3 112/5/3
f 114/5/3 106/5/3 110/5/3
f 114/4/3 110/4/3 113/4/3
f 115/5/3 113/5/3 112/5/3
f 115/5/3 112/5/3 111/5/3
f 115/5/3 114/5/3 113/5/3
f 115/5/3 111/5/3 105/5/3
f 116/5/3 106/5/3 114/5/3
f 116/5/3 114/5/3 115/5/3
f 119/5/3 118/5/3 117/5/3
f 120/5/3 118/5/3 119/5/3
f 121/5/3 118/5/3 120/5/3
f 122/5/3 118/5/3 121/5/3
f 123/5/3 119/5/3 117/5/3
f 123/4/3 120/4/3 119/4/3
f 124/5/3 121/5/3 120/5/3
f 124/4/3 120/4/3 123/4/3
f 125/4/3 122/4/3 121/4/3
f 125/5/3 121/5/3 124/5/3
f 126/5/3 118/5/3 122/5/3
f 126/4/3 122/4/3 125/4/3
f 127/5/3 125/5/3 124/5/3
f 127/5/3 124/5/3 123/5/3
f 127/5/3 126/5/3 125/5/3
f 127/5/3 123/5/3 117/5/3
f 128/5/3 118/5/3 126/5/3
f 128/5/3 126/5/3 127/5/3
f 131/5/3 130/5/3 129/5/3
f 132/5/3 130/5/3 131/5/3
f 133/5/3 130/5/3 132/5/3
f 134/5/3 130/5/3 133/5/3
f 135/5/3 131/5/3 129/5/3
f 135/4/3 132/4/3 131/4/3
f 136/5/3 133/5/3 132/5/3
f 136/4/3 132/4/3 135/4/3
f 137/4/3 134/4/3 133/4/3
f 137/5/3 133/5/3 136/5/3
f 138/5/3 130/5/3 134/5/3
f 138/4/3 134/4/3 137/4/3
f 139/5/3 137/5/3 136/5/3
f 139/5/3 136/5/3 135/5/3
f 139/5/3 138/5/3 137/5/3
f 139/5/3 135/5/3 129/5/3
f 140/5/3 130/5/3 138/5/3
f 140/5/3 138/5/3 139/5/3
f 141/5/4 142/5/4 143/5/4
f 143/5/4 142/5/4 144/5/4
f 144/5/4 142/5/4 145/5/4
f 145/5/4 142/5/4 146/5/4
f 141/5/4 143/5/4 147/5/4
f 143/4/4 144/4/4 147/4/4
f 144/5/4 145/5/4 148/5/4
f 147/4/4 144/4/4 148/4/4
f 145/4/4 146/4/4 149/4/4
f 148/5/4 145/5/4 149/5/4
f 146/5/4 142/5/4 150/5/4
f 149/4/4 146/4/4 150/4/4
f 148/5/4 149/5/4 151/5/4
f 147/5/4 148/5/4 151/5/4
f 149/5/4 150/5/4 151/5/4
f 141/5/4 147/5/4 151/5/4
f 150/5/4 142/5/4 152/5/4
f 151/5/4 150/5/4 152/5/4
f 153/5/4 154/5/4 155/5/4
f 155/5/4 154/5/4 156/5/4
f 156/5/4 154/5/4 157/5/4
f 157/5/4 154/5/4 158/5/4
f 153/5/4 155/5/4 159/5/4
f 155/4/4 156/4/4 159/4/4
f 156/5/4 157/5/4 160/5/4
f 159/4/4 156/4/4 160/4/4
f 157/4/4 158/4/4 161/4/4
f 160/5/4 157/5/4 161/5/4
f 158/5/4 154/5/4 162/5/4
f 161/4/4 158/4/4 162/4/4
f 160/5/4 161/5/4 163/5/4
f 159/5/4 160/5/4 163/5/4
f 161/5/4 162/5/4 163/5/4
f 153/5/4 159/5/4 163/5/4
f 162/5/4 154/5/4 164/5/4
f 163/5/4 162/5/4 164/5/4
f 165/5/4 166/5/4 167/5/4
f 167/5/4 166/5/4 168/5/4
f 168/5/4 166/5/4 169/5/4
f 169/5/4 166/5/4 170/5/4
f 165/5/4 167/5/4 171/5/4
f 167/4/4 168/4/4 171/4/4
f 168/5/4 169/5/4 172/5/4
f 171/4/4 168/4/4 172/4/4
f 169/4/4 170/4/4 173/4/4
f 172/5/4 169/5/4 173/5/4
f 170/5/4 166/5/4 174/5/4
f 173/4/4 170/4/4 174/4/4
f 172/5/4 173/5/4 175/5/4
f 171/5/4 172/5/4 175/5/4
f 173/5/4 174/5/4 175/5/4
f 165/5/4 171/5/4 175/5/4
f 174/5/4 166/5/4 176/5/4
f 175/5/4 174/5/4 176/5/4
f 177/5/4 178/5/4 179/5/4
f 179/5/4 178/5/4 180/5/4
f 180/5/4 178/5/4 181/5/4
f 181/5/4 178/5/4 182/5/4
f 177/5/4 179/5/4 183/5/4
f 179/4/4 180/4/4 183/4/4
f 180/5/4 181/5/4 184/5/4
f 183/4/4 180/4/4 184/4/4
f 181/4/4 182/4/4 185/4/4
f 184/5/4 181/5/4 185/5/4
f 182/5/4 178/5/4 186/5/4
f 185/4/4 182/4/4 186/4/4
f 184/5/4 185/5/4 187/5/4
f 183/5/4 184/5/4 187/5/4
f 185/5/4 186/5/4 187/5/4
f 177/5/4 183/5/4 187/5/4
f 186/5/4 178/5/4 188/5/4
f 187/5/4 186/5/4 188/5/4
f 189/5/4 190/5/4 191/5/4
f 191/5/4 190/5/4 192/5/4
f 193/5/4 194/5/4 195/5/4
f 195/5/4 194/5/4 196/5/4
f 197/5/4 198/5/4 199/5/4
f 199/5/4 198/5/4 200/5/4
f 201/5/4 202/5/4 203/5/4
f 203/5/4 202/5/4 204/5/4
f 205/3/4 206/3/4 207/3/4
f 207/3/4 206/3/4 208/3/4
f 205/3/4 207/3/4 209/3/4
f 207/1/4 208/1/4 209/1/4
f 209/1/4 208/1/4 210/1/4
f 205/3/4 209/3/4 211/3/4
f 209/2/4 210/2/4 211/2/4
f 211/2/4 210/2/4 212/2/4
f 205/3/4 211/3/4 213/3/4
f 211/1/4 212/1/4 213/1/4
f 213/1/4 212/1/4 214/1/4
f 205/3/4 213/3/4 215/3/4
f 213/3/4 214/3/4 215/3/4
f 215/3/4 214/3/4 216/3/4
f 219/3/5 218/3/5 217/3/5
f 220/3/5 218/3/5 219/3/5
f 221/3/6 222/3/6 223/3/6
f 223/3/6 222/3/6 224/3/6
f 223/1/6 224/1/6 225/1/6
f 225/1/6 224/1/6 226/1/6
f 225/2/6 226/2/6 227/2/6
f 227/2/6 226/2/6 228/2/6
f 228/2/6 226/2/6 229/2/6
f 229/2/6 226/2/6 230/2/6
f 230/2/6 226/2/6 231/2/6
f 231/2/6 226/2/6 232/2/6
f 232/2/6 226/2/6 233/2/6
f 233/2/6 226/2/6 234/2/6
f 234/2/6 226/2/6 235/2/6
f 235/2/6 226/2/6 236/2/6
f 236/2/6 226/2/6 237/2/6
f 237/2/6 226/2/6 238/2/6
f 238/2/6 226/2/6 239/2/6
f 239/2/6 226/2/6 240/2/6
f 240/2/6 226/2/6 241/2/6
f 241/2/6 226/2/6 242/2/6
f 242/2/6 226/2/6 243/2/6
f 243/2/6 226/2/6 244/2/6
f 244/2/6 226/2/6 245/2/6
f 245/2/6 226/2/6 246/2/6
f 246/2/6 226/2/6 247/2/6
f 247/2/6 226/2/6 248/2/6
f 248/2/6 226/2/6 249/2/6
f 249/2/6 226/2/6 250/2/6
f 250/2/6 226/2/6 251/2/6
f 251/2/6 226/2/6 252/2/6
f 227/4/6 228/4/6 253/4/6
f 228/2/6 229/2/6 254/2/6
f 253/4/6 228/4/6 254/4/6
f 229/4/6 230/4/6 255/4/6
f 254/2/6 229/2/6 255/2/6
f 230/2/6 231/2/6 256/2/6
f 255/4/6 230/4/6 256/4/6
f 231/4/6 232/4/6 257/4/6
f 256/2/6 231/2/6 257/2/6
f 232/2/6 233/2/6 258/2/6
f 257/4/6 232/4/6 258/4/6
f 233/4/6 234/4/6 259/4/6
f 258/2/6 233/2/6 259/2/6
f 234/2/6 235/2/6 260/2/6
f 259/4/6 234/4/6 260/4/6
f 235/4/6 236/4/6 261/4/6
f 260/2/6 235/2/6 261/2/6
f 236/2/6 237/2/6 262/2/6
f 261/4/6 236/4/6 262/4/6
f 237/4/6 238/4/6 263/4/6
f 262/2/6 237/2/6 263/2/6
f 238/2/6 239/2/6 264/2/6
f 263/4/6 238/4/6 264/4/6
f 239/4/6 240/4/6 265/4/6
f 264/2/6 239/2/6 265/2/6
f 240/2/6 241/2/6 266/2/6
f 265/4/6 240/4/6 266/4/6
f 241/4/6 242/4/6 267/4/6
f 266/2/6 241/2/6 267/2/6
f 242/2/6 243/2/6 268/2/6
f 267/4/6 242/4/6 268/4/6
f 243/4/6 244/4/6 269/4/6
f 268/2/6 243/2/6 269/2/6
f 244/2/6 245/2/6 270/2/6
f 269/4/6 244/4/6 270/4/6
f 245/4/6 246/4/6 271/4/6
f 270/2/6 245/2/6 271/2/6
f 246/2/6 247/2/6 272/2/6
f 271/4/6 246/4/6 272/4/6
f 247/4/6 248/4/6 273/4/6
f 272/2/6 247/2/6 273/2/6
f 248/2/6 249/2/6 274/2/6
f 273/4/6 248/4/6 274/4/6
f 249/4/6 250/4/6 275/4/6
f 274/2/6 249/2/6 275/2/6
f 250/2/6 251/2/6 276/2/6
f 275/4/6 250/4/6 276/4/6
f 251/4/6 252/4/6 277/4/6
f 276/2/6 251/2/6 277/2/6
f 277/4/6 252/4/6 278/4/6
f 225/2/6 227/2/6 279/2/6
f 227/4/6 253/4/6 279/4/6
f 277/2/6 278/2/6 280/2/6
f 279/4/6 253/4/6 280/4/6
f 253/2/6 254/2/6 280/2/6
f 276/2/6 277/2/6 280/2/6
f 275/2/6 276/2/6 280/2/6
f 274/2/6 275/2/6 280/2/6
f 273/2/6 274/2/6 280/2/6
f 272/2/6 273/2/6 280/2/6
f 271/2/6 272/2/6 280/2/6
f 270/2/6 271/2/6 280/2/6
f 269/2/6 270/2/6 280/2/6
f 268/2/6 269/2/6 280/2/6
f 267/2/6 268/2/6 280/2/6
f 266/2/6 267/2/6 280/2/6
f 265/2/6 266/2/6 280/2/6
f 264/2/6 265/2/6 280/2/6
f 263/2/6 264/2/6 280/2/6
f 262/2/6 263/2/6 280/2/6
f 261/2/6 262/2/6 280/2/6
f 260/2/6 261/2/6 280/2/6
f 259/2/6 260/2/6 280/2/6
f 258/2/6 259/2/6 280/2/6
f 257/2/6 258/2/6 280/2/6
f 256/2/6 257/2/6 280/2/6
f 255/2/6 256/2/6 280/2/6
f 254/2/6 255/2/6 280/2/6
f 278/4/6 252/4/6 281/4/6
f 280/2/6 278/2/6 281/2/6
f 252/2/6 226/2/6 282/2/6
f 281/4/6 252/4/6 282/4/6
f 279/2/6 280/2/6 283/2/6
f 280/2/6 281/2/6 283/2/6
f 281/2/6 282/2/6 283/2/6
f 225/2/6 279/2/6 283/2/6
f 283/2/6 282/2/6 284/2/6
f 284/2/6 282/2/6 285/2/6
f 282/2/6 226/2/6 286/2/6
f 285/2/6 282/2/6 286/2/6
f 225/2/6 283/2/6 287/2/6
f 283/4/6 284/4/6 287/4/6
f 284/2/6 285/2/6 288/2/6
f 287/4/6 284/4/6 288/4/6
f 285/4/6 286/4/6 289/4/6
f 288/2/6 285/2/6 289/2/6
f 286/2/6 226/2/6 290/2/6
f 289/4/6 286/4/6 290/4/6
f 225/2/6 287/2/6 291/2/6
f 288/2/6 289/2/6 291/2/6
f 289/2/6 290/2/6 291/2/6
f 287/2/6 288/2/6 291/2/6
f 291/2/6 290/2/6 292/2/6
f 292/2/6 290/2/6 293/2/6
f 290/2/6 226/2/6 294/2/6
f 293/2/6 290/2/6 294/2/6
f 225/2/6 291/2/6 295/2/6
f 291/4/6 292/4/6 295/4/6
f 292/2/6 293/2/6 296/2/6
f 295/4/6 292/4/6 296/4/6
f 293/4/6 294/4/6 297/4/6
f 296/2/6 293/2/6 297/2/6
f 294/2/6 226/2/6 298/2/6
f 297/4/6 294/4/6 298/4/6
f 225/2/6 295/2/6 299/2/6
f 296/2/6 297/2/6 299/2/6
f 297/2/6 298/2/6 299/2/6
f 295/2/6 296/2/6 299/2/6
f 299/2/6 298/2/6 300/2/6
f 300/2/6 298/2/6 301/2/6
f 298/2/6 226/2/6 302/2/6
f 301/2/6 298/2/6 302/2/6
f 225/2/6 299/2/6 303/2/6
f 299/4/6 300/4/6 303/4/6
f 300/2/6 301/2/6 304/2/6
f 303/4/6 300/4/6 304/4/6
f 301/4/6 302/4/6 305/4/6
f 304/2/6 301/2/6 305/2/6
f 302/2/6 226/2/6 306/2/6
f 305/4/6 302/4/6 306/4/6
f 225/2/6 303/2/6 307/2/6
f 304/2/6 305/2/6 307/2/6
f 305/2/6 306/2/6 307/2/6
f 303/2/6 304/2/6 307/2/6
f 307/2/6 306/2/6 308/2/6
f 308/2/6 306/2/6 309/2/6
f 306/2/6 226/2/6 310/2/6
f 309/2/6 306/2/6 310/2/6
f 221/3/6 223/3/6 311/3/6
f 311/3/6 223/3/6 312/3/6
f 312/3/6 223/3/6 313/3/6
f 313/3/6 223/3/6 314/3/6
f 224/3/6 222/3/6 315/3/6
f 315/3/6 222/3/6 316/3/6
f 316/3/6 222/3/6 317/3/6
f 317/3/6 222/3/6 318/3/6
f 225/2/6 307/2/6 319/2/6
f 307/4/6 308/4/6 319/4/6
f 308/2/6 309/2/6 320/2/6
f 319/4/6 308/4/6 320/4/6
f 309/4/6 310/4/6 321/4/6
f 320/2/6 309/2/6 321/2/6
f 310/2/6 226/2/6 322/2/6
f 321/4/6 310/4/6 322/4/6
f 221/3/6 311/3/6 323/3/6
f 312/3/6 313/3/6 324/3/6
f 324/3/6 313/3/6 325/3/6
f 314/3/6 223/3/6 326/3/6
f 224/3/6 315/3/6 327/3/6
f 316/3/6 317/3/6 328/3/6
f 328/3/6 317/3/6 329/3/6
f 318/3/6 222/3/6 330/3/6
f 324/3/6 325/3/6 331/3/6
f 325/3/6 326/3/6 331/3/6
f 221/3/6 323/3/6 331/3/6
f 323/3/6 324/3/6 331/3/6
f 223/1/6 225/1/6 332/1/6
f 331/3/6 326/3/6 332/3/6
f 326/3/6 223/3/6 332/3/6
f 320/2/6 321/2/6 333/2/6
f 332/1/6 225/1/6 333/1/6
f 225/2/6 319/2/6 333/2/6
f 319/2/6 320/2/6 333/2/6
f 321/2/6 322/2/6 333/2/6
f 226/1/6 224/1/6 334/1/6
f 333/2/6 322/2/6 334/2/6
f 322/2/6 226/2/6 334/2/6
f 329/3/6 330/3/6 335/3/6
f 334/1/6 224/1/6 335/1/6
f 328/3/6 329/3/6 335/3/6
f 327/3/6 328/3/6 335/3/6
f 224/3/6 327/3/6 335/3/6
f 330/3/6 222/3/6 336/3/6
f 335/3/6 330/3/6 336/3/6
f 337/5/6 338/5/6 345/5/6
f 345/5/6 338/5/6 346/5/6
f 339/5/6 340/5/6 347/5/6
f 347/5/6 340/5/6 348/5/6
f 341/5/6 342/5/6 349/5/6
f 349/5/6 342/5/6 350/5/6
f 343/5/6 344/5/6 351/5/6
f 351/5/6 344/5/6 352/5/6
f 337/5/6 345/5/6 353/5/6
f 346/5/6 338/5/6 354/5/6
f 339/5/6 347/5/6 355/5/6
f 348/5/6 340/5/6 356/5/6
f 341/5/6 349/5/6 357/5/6
f 350/5/6 342/5/6 358/5/6
f 343/5/6 351/5/6 359/5/6
f 352/5/6 344/5/6 360/5/6
f 337/5/6 353/5/6 361/5/6
f 353/5/6 354/5/6 361/5/6
f 354/5/6 338/5/6 362/5/6
f 361/5/6 354/5/6 362/5/6
f 339/5/6 355/5/6 363/5/6
f 355/5/6 356/5/6 363/5/6
f 356/5/6 340/5/6 364/5/6
f 363/5/6 356/5/6 364/5/6
f 341/5/6 357/5/6 365/5/6
f 357/5/6 358/5/6 365/5/6
f 358/5/6 342/5/6 366/5/6
f 365/5/6 358/5/6 366/5/6
f 359/5/6 360/5/6 367/5/6
f 343/5/6 359/5/6 367/5/6
f 360/5/6 344/5/6 368/5/6
f 367/5/6 360/5/6 368/5/6
f 369/5/6 370/5/6 377/5/6
f 377/5/6 370/5/6 378/5/6
f 371/5/6 372/5/6 379/5/6
f 379/5/6 372/5/6 380/5/6
f 373/5/6 374/5/6 381/5/6
f 381/5/6 374/5/6 382/5/6
f 375/5/6 376/5/6 383/5/6
f 383/5/6 376/5/6 384/5/6
