# MagicaVoxel @ Ephtracy

# material
mtllib GroundRoad.mtl
usemtl palette

# normals
vn -1 0 0
vn 1 0 0
vn 0 0 1
vn 0 0 -1
vn 0 -1 0
vn 0 1 0

# texcoords
vt 0.720703 0.5
vt 0.751953 0.5
vt 0.783203 0.5
vt 0.845703 0.5

# verts
v -63 0 21
v -63 0 -21
v -63 2 21
v -63 2 -21
v 63 0 21
v 63 0 -21
v 63 2 21
v 63 2 -21
v -63 0 21
v -63 2 21
v -12 1 21
v -12 2 21
v -11 1 21
v -11 2 21
v 10 1 21
v 10 2 21
v 11 1 21
v 11 2 21
v 63 0 21
v 63 2 21
v -63 0 -21
v -63 2 -21
v -12 1 -21
v -12 2 -21
v -11 1 -21
v -11 2 -21
v 10 1 -21
v 10 2 -21
v 11 1 -21
v 11 2 -21
v 63 0 -21
v 63 2 -21
v -63 0 21
v 63 0 21
v -63 0 -21
v 63 0 -21
v -63 2 21
v -12 2 21
v -11 2 21
v 10 2 21
v 11 2 21
v 63 2 21
v -1 2 20
v 0 2 20
v -1 2 16
v 0 2 16
v -1 2 14
v 0 2 14
v -1 2 10
v 0 2 10
v -1 2 8
v 0 2 8
v -1 2 4
v 0 2 4
v -1 2 2
v 0 2 2
v -1 2 -2
v 0 2 -2
v -1 2 -4
v 0 2 -4
v -1 2 -8
v 0 2 -8
v -1 2 -10
v 0 2 -10
v -1 2 -14
v 0 2 -14
v -1 2 -16
v 0 2 -16
v -1 2 -20
v 0 2 -20
v -63 2 -21
v -12 2 -21
v -11 2 -21
v 10 2 -21
v 11 2 -21
v 63 2 -21

# faces
f 3/3/1 2/3/1 1/3/1
f 4/3/1 2/3/1 3/3/1
f 5/3/2 6/3/2 7/3/2
f 7/3/2 6/3/2 8/3/2
f 11/3/3 10/3/3 9/3/3
f 12/3/3 10/3/3 11/3/3
f 13/3/3 11/3/3 9/3/3
f 13/1/3 12/1/3 11/1/3
f 14/1/3 12/1/3 13/1/3
f 15/3/3 13/3/3 9/3/3
f 15/2/3 14/2/3 13/2/3
f 16/2/3 14/2/3 15/2/3
f 17/3/3 15/3/3 9/3/3
f 17/1/3 16/1/3 15/1/3
f 18/1/3 16/1/3 17/1/3
f 19/3/3 17/3/3 9/3/3
f 19/3/3 18/3/3 17/3/3
f 20/3/3 18/3/3 19/3/3
f 21/3/4 22/3/4 23/3/4
f 23/3/4 22/3/4 24/3/4
f 21/3/4 23/3/4 25/3/4
f 23/1/4 24/1/4 25/1/4
f 25/1/4 24/1/4 26/1/4
f 21/3/4 25/3/4 27/3/4
f 25/2/4 26/2/4 27/2/4
f 27/2/4 26/2/4 28/2/4
f 21/3/4 27/3/4 29/3/4
f 27/1/4 28/1/4 29/1/4
f 29/1/4 28/1/4 30/1/4
f 21/3/4 29/3/4 31/3/4
f 29/3/4 30/3/4 31/3/4
f 31/3/4 30/3/4 32/3/4
f 35/3/5 34/3/5 33/3/5
f 36/3/5 34/3/5 35/3/5
f 39/2/6 40/2/6 43/2/6
f 43/2/6 40/2/6 44/2/6
f 39/2/6 43/2/6 45/2/6
f 43/4/6 44/4/6 45/4/6
f 44/2/6 40/2/6 46/2/6
f 45/4/6 44/4/6 46/4/6
f 39/2/6 45/2/6 47/2/6
f 45/2/6 46/2/6 47/2/6
f 46/2/6 40/2/6 48/2/6
f 47/2/6 46/2/6 48/2/6
f 39/2/6 47/2/6 49/2/6
f 47/4/6 48/4/6 49/4/6
f 48/2/6 40/2/6 50/2/6
f 49/4/6 48/4/6 50/4/6
f 39/2/6 49/2/6 51/2/6
f 49/2/6 50/2/6 51/2/6
f 50/2/6 40/2/6 52/2/6
f 51/2/6 50/2/6 52/2/6
f 39/2/6 51/2/6 53/2/6
f 51/4/6 52/4/6 53/4/6
f 52/2/6 40/2/6 54/2/6
f 53/4/6 52/4/6 54/4/6
f 39/2/6 53/2/6 55/2/6
f 53/2/6 54/2/6 55/2/6
f 54/2/6 40/2/6 56/2/6
f 55/2/6 54/2/6 56/2/6
f 39/2/6 55/2/6 57/2/6
f 55/4/6 56/4/6 57/4/6
f 56/2/6 40/2/6 58/2/6
f 57/4/6 56/4/6 58/4/6
f 39/2/6 57/2/6 59/2/6
f 57/2/6 58/2/6 59/2/6
f 58/2/6 40/2/6 60/2/6
f 59/2/6 58/2/6 60/2/6
f 39/2/6 59/2/6 61/2/6
f 59/4/6 60/4/6 61/4/6
f 60/2/6 40/2/6 62/2/6
f 61/4/6 60/4/6 62/4/6
f 39/2/6 61/2/6 63/2/6
f 61/2/6 62/2/6 63/2/6
f 62/2/6 40/2/6 64/2/6
f 63/2/6 62/2/6 64/2/6
f 39/2/6 63/2/6 65/2/6
f 63/4/6 64/4/6 65/4/6
f 64/2/6 40/2/6 66/2/6
f 65/4/6 64/4/6 66/4/6
f 39/2/6 65/2/6 67/2/6
f 65/2/6 66/2/6 67/2/6
f 66/2/6 40/2/6 68/2/6
f 67/2/6 66/2/6 68/2/6
f 39/2/6 67/2/6 69/2/6
f 67/4/6 68/4/6 69/4/6
f 68/2/6 40/2/6 70/2/6
f 69/4/6 68/4/6 70/4/6
f 37/3/6 38/3/6 71/3/6
f 38/1/6 39/1/6 72/1/6
f 71/3/6 38/3/6 72/3/6
f 39/2/6 69/2/6 73/2/6
f 72/1/6 39/1/6 73/1/6
f 69/2/6 70/2/6 73/2/6
f 70/2/6 40/2/6 74/2/6
f 73/2/6 70/2/6 74/2/6
f 40/1/6 41/1/6 74/1/6
f 41/3/6 42/3/6 75/3/6
f 74/1/6 41/1/6 75/1/6
f 75/3/6 42/3/6 76/3/6
